<?xml version="1.0" encoding="UTF-8"?>
<svg id="Layer_1" data-name="Layer 1" xmlns="http://www.w3.org/2000/svg" viewBox="0 0 75.15 75.02">
  <defs>
    <style>
      .cls-1 {
        fill: #fff;
      }

      .cls-2 {
        fill: #77b3e1;
      }
    </style>
  </defs>
  <circle class="cls-2" cx="40.44" cy="17.47" r="15.4"/>
  <path class="cls-1" d="M60.88,50.79c-.38-.49-1.96-2.39-2.35-2.55-1.21-.48-5.2,2.22-5.83,1.33-.08-.12-.28-2.67-.18-2.83l3.48-1.6c.03-.15-1-1.43-1.92-2.44-.57.37-1.18.66-1.8.93-.7.31-1.41.62-2.11.92-5.04,2.15-10.13,4.34-15.62,5.01.04.23.06.46.07.69,0,.27-.42.27-.42,0,0-.22-.03-.44-.06-.65-.12-.04-.15-.21-.07-.32,0-.03-.02-.07-.03-.1-.13.02-.25.03-.39,0v-1.09c-.02-.05-.02-.1,0-.15v-2.04c0-.05-.18-.18-.16-.35l.14-.22c.55-.42,1.14-.78,1.77-1.06,4.28-1.94,9.71-3.22,13.84-5.32.27-.14.76-.34.72-.72-.08-.8-1.32-2.42-2.29-2.37-.71.04-3.16.82-4.02,1.07-3.71,1.08-7.22,2.85-10.94,3.81v-3.66c0-.4,1.69-.64,1.41-1.03l-4.86-2.44-23.41,6.95v-6.57l2.44-.38v1.88s17.09-5.55,17.09-5.55l-2.17-3.84-17.25,4.69-.29-.46-.57-9.48c-1.66.32-3.4.2-4.79,1.31C-.04,39.53-.07,56.96.11,74.37l.48.65h8.46c14.01-6.63,28.51-11.97,42.59-18.46.34-.16.37-.53.66-.67,3.05-1.4,6.24-2.59,9.34-3.89.12-.16-.6-1.01-.76-1.21ZM30.95,50.23l-.23.24-23.93,9.61-.1-6.58,2.16-.94.28,2.25,21.51-8.45.31,3.86ZM6.21,43.82c.12-.94,1.5-.88,2.26-1.21l.19,2.25c7.06-2.08,13.76-5.42,20.84-7.51l.56,4.1c-4.55,1.76-9.03,3.79-13.6,5.48-2.52.93-6.62,2.58-9.1,3.1-.32.07-.62.12-.95.09.25-2.04-.44-4.32-.2-6.3ZM31.59,58.31c-.05.53-.07.82-.59,1.1-6.23,2.53-12.39,5.22-18.52,7.96-1.94.87-3.75,2.11-5.88,2.47v-6.67c.21-.49,2.63-1.22,2.82-1.03l.09,1.88,21.45-8.99c.68-.07.69,2.73.64,3.27ZM49.8,51.16l-14.93,6.67c-.42.05-.23-.05-.28-.28-.11-.56-.48-3.16-.29-3.48l15.5-6.38v3.47Z"/>
  <path class="cls-1" d="M40.18.03c13.68-.77,22.86,13.95,16.17,25.94-.42.76-2.73,3.36-2.58,3.93l20.04,22.42c2.09,2.13,1.86,5.91-1.59,6.24-1.62.16-2.26-.49-3.27-1.57-2.17-2.32-4.15-5.24-6.2-7.7-4.49-5.4-9.01-10.77-13.52-16.16-.75-.35-2.4.66-3.23.9-7.43,2.11-15.93-1.04-19.84-7.7C19.52,15,27.07.77,40.18.03ZM53.25,17.47c0-6.81-5.52-12.33-12.33-12.33s-12.33,5.52-12.33,12.33,5.52,12.33,12.33,12.33,12.33-5.52,12.33-12.33Z"/>
  <polygon class="cls-1" points="21.81 21.75 7.91 25.33 7.53 20.91 7.72 20.35 21.25 16.97 21.27 19.58 21.81 21.75"/>
  <path class="cls-1" d="M69.31,27.75l-10.24,3.58c-.89.2-1.56-.7-1.91-1.43l2.14-3.99,9.37-3.02.63,4.86Z"/>
  <circle class="cls-1" cx="60.81" cy="63.04" r="3.49"/>
  <path class="cls-1" d="M45.24,68.01c2.96-.61,5.65,2.18,4.1,5.04-1.9,3.5-6.98,1.8-6.47-2.15.14-1.12,1.23-2.65,2.37-2.88Z"/>
  <path class="cls-1" d="M70.08,32.28l.48,4.71c-.83.23-4.68,2.16-5.17,1.97-.45-.18-3.4-3.41-3.38-3.76l8.07-2.91Z"/>
  <path class="cls-1" d="M66.7,11.24c-2.08-.53-4.01.77-6.07.92-.35-.11-1.82-4.09-1.63-4.3,1.58-.06,5.5-1.93,6.83-1.48.76.26.73,4,.87,4.86Z"/>
  <path class="cls-1" d="M67.45,14.63l.49,3.94-7.25,2.06.59-4.48c.79-.24,5.86-1.82,6.17-1.52Z"/>
  <path class="cls-1" d="M71.4,40.73c-.11,1.42.56,3.05.57,4.42,0,.24-.05.58-.3.64-.56.15-3.12-3.08-3.65-3.66-.07-.4.08-.22.26-.3.35-.15,3.01-1.24,3.12-1.11Z"/>
  <path class="cls-1" d="M50.14,15.16c-6,1.15-11.83,3-17.74,4.53-1.77.71-1.31-4.04-.89-4.32l16.64-4.46c.75.36,2.88,3.67,1.98,4.26Z"/>
  <path class="cls-1" d="M51.02,21.32c-5.23,1-10.31,2.61-15.45,3.95-1.54.62-1.14-3.52-.77-3.77l14.5-3.89c.65.32,2.51,3.2,1.72,3.71Z"/>
  <path class="cls-1" d="M50.57,57.04l11.06-5.04-3.26-1.86s-5.78,1.72-5.96,1.84-3.81,2.38-3.99,2.74,2.14,2.32,2.14,2.32Z"/>
  <polygon class="cls-1" points="31 59.41 29.5 37.36 31.61 36.53 33.1 59.01 30.06 61.95 31.61 59.55 31 59.41"/>
  <polygon class="cls-1" points="32.71 37.07 34.87 57.83 32.54 59.55 31.61 36.53 32.71 37.07"/>
  <polygon class="cls-1" points="33.85 45.16 34.25 50.67 32.82 50.43 32.03 46.8 33.85 45.16"/>
  <polygon class="cls-1" points="30.4 50.6 52.78 41.47 54.36 43.01 37.14 50.91 33.81 51.36 31.15 51.53 30.4 50.6"/>
</svg>